<?xml version="1.0" encoding="UTF-8"?>
<svg width="97px" height="99px" viewBox="0 0 97 99" version="1.1" xmlns="http://www.w3.org/2000/svg" xmlns:xlink="http://www.w3.org/1999/xlink">
    <!-- Generator: Sketch 51.2 (57519) - http://www.bohemiancoding.com/sketch -->
    <title>Artboard</title>
    <desc>Created with Sketch.</desc>
    <defs></defs>
    <g id="Artboard" stroke="none" stroke-width="1" fill="none" fill-rule="evenodd">
        <g id="valued-voice-logo_(1)(1)" transform="translate(1.000000, 1.000000)">
            <g id="Group-16" transform="translate(0.000000, 37.000000)">
                <path d="M43.923,25.255 C40.722,21.868 37.091,18.44 33.082,15.085 C12.767,-1.919 -2.019,-4.463 0.225,9.434 C2.467,23.33 13.236,42.178 24.155,51.317 C25.888,52.769 27.725,54.032 29.607,55.144 C26.432,49.405 32.253,37.614 43.923,25.255" id="Fill-13" fill="#3A8ABE"></path>
                <path d="M54.92,14.949 C50.846,18.35 47.163,21.823 43.923,25.255 C55.378,37.376 61.251,48.973 58.583,54.88 C60.386,53.805 62.144,52.589 63.808,51.2 C74.736,42.079 85.525,23.251 87.784,9.358 C90.043,-4.535 75.253,-2.019 54.92,14.949" id="Fill-14" fill="#27A848"></path>
                <path d="M43.923,25.255 C32.253,37.614 26.432,49.405 29.607,55.144 C34.077,57.78 38.823,59.433 43.256,60 C48.162,59.64 53.557,57.88 58.583,54.88 C61.251,48.973 55.378,37.376 43.923,25.255" id="Fill-15" fill="#178041"></path>
            </g>
            <path d="M36.731,23.69 C35.497,22.384 34.097,21.063 32.551,19.769 C24.717,13.212 19.017,12.231 19.881,17.59 C20.746,22.948 24.898,30.215 29.108,33.739 C29.776,34.298 30.485,34.786 31.211,35.214 C29.986,33.002 32.231,28.455 36.731,23.69" id="Fill-17" fill="#3A8ABE"></path>
            <path d="M40.972,19.716 C39.4,21.027 37.98,22.367 36.731,23.69 C41.147,28.363 43.413,32.835 42.384,35.113 C43.079,34.698 43.757,34.23 44.398,33.694 C48.612,30.177 52.771,22.917 53.642,17.56 C54.514,12.203 48.811,13.174 40.972,19.716" id="Fill-18" fill="#3A8ABE"></path>
            <g id="Group-23" transform="translate(30.000000, 0.000000)">
                <path d="M6.731,23.69 C2.231,28.455 -0.014,33.002 1.211,35.214 C2.934,36.23 4.764,36.868 6.474,37.087 C8.366,36.947 10.445,36.27 12.384,35.113 C13.413,32.835 11.147,28.363 6.731,23.69" id="Fill-19" fill="#335797"></path>
                <path d="M47.993,10.288 C46.758,8.982 45.359,7.661 43.813,6.367 C35.979,-0.19 30.279,-1.171 31.144,4.188 C32.008,9.546 36.16,16.813 40.37,20.337 C41.039,20.896 41.747,21.384 42.473,21.813 C41.248,19.6 43.493,15.054 47.993,10.288" id="Fill-21" fill="#3A8ABE"></path>
                <path d="M52.233,6.314 C50.662,7.626 49.242,8.965 47.993,10.288 C52.409,14.962 54.674,19.433 53.646,21.711 C54.341,21.296 55.019,20.827 55.66,20.292 C59.874,16.775 64.033,9.515 64.904,4.158 C65.776,-1.199 60.073,-0.228 52.233,6.314" id="Fill-22" fill="#27A848"></path>
            </g>
            <path d="M77.993,10.288 C73.493,15.054 71.248,19.6 72.473,21.813 C74.196,22.829 76.026,23.466 77.736,23.685 C79.627,23.545 81.707,22.868 83.646,21.711 C84.674,19.433 82.409,14.962 77.993,10.288" id="Fill-24" fill="#178041"></path>
        </g>
    </g>
</svg>