<?xml version="1.0" encoding="UTF-8"?>
<svg width="197px" height="48px" viewBox="0 0 197 48" version="1.1" xmlns="http://www.w3.org/2000/svg" xmlns:xlink="http://www.w3.org/1999/xlink">
    <!-- Generator: Sketch 51.2 (57519) - http://www.bohemiancoding.com/sketch -->
    <title>valued-voice-logo_(1)</title>
    <desc>Created with Sketch.</desc>
    <defs>
        <polygon id="path-1" points="0 0.188793514 196.833459 0.188793514 196.833459 29.6610309 0 29.6610309"></polygon>
    </defs>
    <g id="Page-1" stroke="none" stroke-width="1" fill="none" fill-rule="evenodd">
        <g id="Desktop" transform="translate(-41.000000, -32.000000)">
            <g id="valued-voice-logo_(1)" transform="translate(41.000000, 32.000000)">
                <path d="M59.4753317,44.5895258 L55.6625711,44.5895258 C53.4778853,39.1096082 51.6174389,33.5821856 50.1057955,28.2423093 L53.6866758,28.2423093 C54.7090125,32.3643711 56.2668354,37.2821443 57.7548978,41.3334433 L57.7789701,41.3334433 C59.4065536,36.6269691 60.7541122,32.1308041 61.7774314,28.2423093 L64.9859277,28.2423093 C63.4516858,33.5821856 61.6605087,38.8750515 59.4753317,44.5895258" id="Fill-1" fill="#676867"></path>
                <path d="M70.8472918,31.3108454 L70.824202,31.3341031 C69.9870748,33.6999588 69.1735287,36.0410722 68.4292519,38.3599175 L73.2417506,38.3599175 C72.4984564,36.0178144 71.6849102,33.6999588 70.8472918,31.3108454 Z M75.0314539,44.5895258 C74.6831421,43.3949691 74.3117406,42.0361237 73.9388653,40.7722887 L67.7547357,40.7722887 C67.3597531,42.0598763 66.9647706,43.3712165 66.6385661,44.5895258 L63.5234115,44.5895258 C65.1976658,38.9685773 67.0340399,33.6524536 69.1263666,28.2423093 L72.8462768,28.2423093 C75.0088554,33.7232165 76.9380798,39.2729072 78.5656633,44.5895258 L75.0314539,44.5895258 Z" id="Fill-2" fill="#676867"></path>
                <polyline id="Fill-3" fill="#676867" points="80.3592968 44.5895258 80.3592968 28.2423093 83.4739601 28.2423093 83.4739601 42.0361237 89.0774065 42.0361237 89.0774065 44.5895258 80.3592968 44.5895258"></polyline>
                <path d="M96.9608454,44.8943505 C92.8921322,44.8943505 90.4740923,42.8090722 90.4740923,38.6647423 L90.4740923,28.2423093 L93.5902294,28.2423093 L93.5902294,38.4059381 C93.5902294,41.0058557 94.9608778,42.3409485 97.0546783,42.3409485 C99.1926933,42.3409485 100.495055,40.9593402 100.495055,38.5474639 L100.495055,28.2423093 L103.540449,28.2423093 L103.540449,38.4534433 C103.540449,42.5047423 101.191678,44.8943505 96.9608454,44.8943505" id="Fill-4" fill="#676867"></path>
                <polyline id="Fill-5" fill="#676867" points="106.820671 44.5895258 106.820671 28.2423093 116.26095 28.2423093 116.26095 30.7249485 109.913718 30.7249485 109.913718 34.9167835 115.399751 34.9167835 115.399751 37.3524124 109.913718 37.3524124 109.913718 42.1068866 116.3538 42.1068866 116.3538 44.5895258 106.820671 44.5895258"></polyline>
                <path d="M124.376761,30.7249485 L122.167511,30.7249485 L122.167511,42.083134 L124.35318,42.083134 C127.723796,42.083134 129.420648,40.1393814 129.420648,36.3458969 C129.420648,33.113567 127.980731,30.7249485 124.376761,30.7249485 Z M124.260329,44.5895258 L119.074955,44.5895258 L119.074955,28.2423093 L124.585551,28.2423093 C129.747344,28.2423093 132.676307,31.0297732 132.676307,36.1811134 C132.676307,41.849567 129.444721,44.5895258 124.260329,44.5895258 Z" id="Fill-6" fill="#676867"></path>
                <path d="M143.770207,44.5895258 L139.957446,44.5895258 C137.771287,39.1096082 135.911332,33.5821856 134.400671,28.2423093 L137.980569,28.2423093 C139.003888,32.3643711 140.561711,37.2821443 142.049282,41.3334433 L142.072372,41.3334433 C143.699464,36.6269691 145.048988,32.1308041 146.070833,28.2423093 L149.280312,28.2423093 C147.745087,33.5821856 145.955875,38.8750515 143.770207,44.5895258" id="Fill-7" fill="#3A8ABE"></path>
                <path d="M157.397105,30.5146392 C154.048105,30.5146392 152.932918,33.1610722 152.932918,36.2286186 C152.932918,39.929567 154.094776,42.3176907 157.628494,42.3176907 C161.000092,42.3176907 162.09219,39.670268 162.09219,36.5329485 C162.09219,32.9967835 160.930823,30.5146392 157.397105,30.5146392 Z M157.419703,44.9171134 C152.281,44.9171134 149.630589,42.083134 149.630589,36.5096907 C149.630589,31.3108454 152.444102,27.9147216 157.582314,27.9147216 C162.604095,27.9147216 165.394027,30.8892371 165.394027,36.2523711 C165.394027,41.5917526 162.673855,44.9171134 157.419703,44.9171134 Z" id="Fill-8" fill="#3A8ABE"></path>
                <polygon id="Fill-9" fill="#3A8ABE" points="167.838105 44.5890309 170.953751 44.5890309 170.953751 28.2423093 167.838105 28.2423093"></polygon>
                <path d="M181.184486,44.8705979 C176.348406,44.8705979 173.395863,42.0598763 173.395863,36.6512165 C173.395863,31.1465567 176.511017,27.9612371 181.114726,27.9612371 C182.64995,27.9612371 183.998,28.2190515 185.370122,28.8757113 L184.439653,31.3108454 C183.370155,30.8189691 182.370416,30.6076701 181.184486,30.6076701 C178.394062,30.6076701 176.721282,33.0200412 176.721282,36.4161649 C176.721282,40.3739381 178.626434,42.2004124 181.533781,42.2004124 C182.64995,42.2004124 183.742539,41.9193402 184.671534,41.497732 L185.439392,43.9096082 C184.230372,44.496 182.625878,44.8705979 181.184486,44.8705979" id="Fill-10" fill="#3A8ABE"></path>
                <g id="Group-16" transform="translate(0.000000, 18.309278)">
                    <mask id="mask-2" fill="white">
                        <use xlink:href="#path-1"></use>
                    </mask>
                    <g id="Clip-12"></g>
                    <polyline id="Fill-11" fill="#3A8ABE" mask="url(#mask-2)" points="187.30082 26.2802474 187.30082 9.93303093 196.742082 9.93303093 196.742082 12.4156701 190.393868 12.4156701 190.393868 16.6075052 195.880392 16.6075052 195.880392 19.043134 190.393868 19.043134 190.393868 23.7976082 196.833459 23.7976082 196.833459 26.2802474 187.30082 26.2802474"></polyline>
                    <path d="M21.5781322,12.4973196 C20.0055711,10.8212784 18.2217631,9.12494845 16.2522544,7.46474227 C6.27206733,-0.949608247 -0.991877805,-2.20849485 0.11053616,4.66837113 C1.21196758,11.5447423 6.50247382,20.8715876 11.8666708,25.3939794 C12.7180449,26.1124948 13.6205112,26.7374845 14.5450848,27.2877526 C12.9852968,24.4478351 15.84499,18.6131134 21.5781322,12.4973196" id="Fill-13" fill="#3A8ABE" mask="url(#mask-2)"></path>
                    <path d="M26.9806484,7.3974433 C24.979207,9.08041237 23.1698529,10.7990103 21.5781322,12.4973196 C27.2056509,18.4953402 30.0908903,24.2340619 28.7801771,27.1571134 C29.6659401,26.6251546 30.529596,26.0234227 31.3470723,25.3360825 C36.7156908,20.8225979 42.0160224,11.5056495 43.1258055,4.63076289 C44.2355885,-2.24412371 36.9696783,-0.999092784 26.9806484,7.3974433" id="Fill-14" fill="#27A848" mask="url(#mask-2)"></path>
                    <path d="M21.5781322,12.4973196 C15.84499,18.6131134 12.9852968,24.4478351 14.5450848,27.2877526 C16.7410698,28.5921649 19.0726459,29.4101443 21.2504539,29.6907216 C23.6606334,29.5125773 26.3110449,28.6416495 28.7801771,27.1571134 C30.0908903,24.2340619 27.2056509,18.4953402 21.5781322,12.4973196" id="Fill-15" fill="#178041" mask="url(#mask-2)"></path>
                </g>
                <path d="M18.0449052,11.7228866 C17.4386758,11.0766186 16.7508953,10.4229278 15.991389,9.78259794 C12.1427656,6.53789691 9.34251621,6.05245361 9.76697506,8.7043299 C10.1919252,11.3557113 12.2316858,14.9517526 14.2999401,16.6955876 C14.6281097,16.9722062 14.9764214,17.2136907 15.3330848,17.4254845 C14.7312768,16.3308866 15.834182,14.0808247 18.0449052,11.7228866" id="Fill-17" fill="#3A8ABE"></path>
                <path d="M20.128389,9.75637113 C19.3561097,10.4051134 18.6585037,11.0682062 18.0449052,11.7228866 C20.2143616,14.035299 21.3275835,16.2482474 20.8220648,17.3755052 C21.1634988,17.1701443 21.496581,16.9385567 21.8114863,16.6733196 C23.8817057,14.9329485 25.9249052,11.3403711 26.352803,8.68948454 C26.781192,6.03859794 23.9794688,6.51909278 20.128389,9.75637113" id="Fill-18" fill="#3A8ABE"></path>
                <g id="Group-23" transform="translate(14.738155, 0.000000)">
                    <path d="M3.30675062,11.7228866 C1.09602743,14.0808247 -0.00687780549,16.3308866 0.594930175,17.4254845 C1.44139152,17.9282474 2.34041895,18.2439588 3.18049377,18.3523299 C4.10998005,18.2830515 5.13133416,17.9480412 6.08391022,17.3755052 C6.58942893,16.2482474 5.47620698,14.035299 3.30675062,11.7228866" id="Fill-19" fill="#335797"></path>
                    <path d="M23.5776085,5.09096907 C22.9708878,4.44470103 22.2835985,3.79101031 21.5240923,3.15068041 C17.6754688,-0.0940206186 14.8752195,-0.579463918 15.3001696,2.07241237 C15.7246284,4.72379381 17.764389,8.31983505 19.8326434,10.0636701 C20.1613042,10.3402887 20.5091247,10.5817732 20.865788,10.7940619 C20.26398,9.69896907 21.3668853,7.44940206 23.5776085,5.09096907" id="Fill-21" fill="#3A8ABE"></path>
                    <path d="M25.660601,3.12445361 C24.888813,3.77369072 24.191207,4.43628866 23.5776085,5.09096907 C25.7470648,7.40387629 26.8597955,9.6163299 26.3547681,10.7435876 C26.696202,10.5382268 27.0292843,10.3061443 27.3441895,10.0414021 C29.414409,8.30103093 31.4576085,4.70845361 31.8855062,2.05756701 C32.3138953,-0.593319588 29.5121721,-0.112824742 25.660601,3.12445361" id="Fill-22" fill="#27A848"></path>
                </g>
                <path d="M38.3157631,5.09096907 C36.1050399,7.44940206 35.0021347,9.69896907 35.6039426,10.7940619 C36.450404,11.2968247 37.3494314,11.6120412 38.1895062,11.7204124 C39.1185012,11.651134 40.1403466,11.3161237 41.0929227,10.7435876 C41.5979501,9.6163299 40.4852195,7.40387629 38.3157631,5.09096907" id="Fill-24" fill="#178041"></path>
            </g>
        </g>
    </g>
</svg>